<svg id="GD001" height="512" viewBox="0 0 512 512" width="512" xmlns="http://www.w3.org/2000/svg" xmlns:xlink="http://www.w3.org/1999/xlink"><linearGradient id="New_Gradient_Swatch_2" gradientUnits="userSpaceOnUse" x1="168" x2="168" y1="28.972" y2="469.905"><stop offset="0" stop-color="#fc5c7d"/><stop offset=".129" stop-color="#f35e85"/><stop offset=".343" stop-color="#d9659b"/><stop offset=".616" stop-color="#b070bf"/><stop offset=".934" stop-color="#777ff0"/><stop offset="1" stop-color="#6a82fb"/></linearGradient><linearGradient id="New_Gradient_Swatch_2-2" x1="208" x2="208" xlink:href="#New_Gradient_Swatch_2" y1="28.972" y2="469.905"/><linearGradient id="New_Gradient_Swatch_2-3" x1="344" x2="344" xlink:href="#New_Gradient_Swatch_2" y1="28.972" y2="469.905"/><linearGradient id="New_Gradient_Swatch_2-4" x1="88" x2="88" xlink:href="#New_Gradient_Swatch_2" y1="28.972" y2="469.905"/><linearGradient id="New_Gradient_Swatch_2-5" x1="192" x2="192" xlink:href="#New_Gradient_Swatch_2" y1="28.972" y2="469.905"/><linearGradient id="New_Gradient_Swatch_2-9" x1="152" x2="152" xlink:href="#New_Gradient_Swatch_2" y1="28.972" y2="469.905"/><linearGradient id="New_Gradient_Swatch_2-10" x1="164" x2="164" xlink:href="#New_Gradient_Swatch_2" y1="28.972" y2="469.905"/><linearGradient id="New_Gradient_Swatch_2-11" x1="180" x2="180" xlink:href="#New_Gradient_Swatch_2" y1="28.972" y2="469.905"/><linearGradient id="New_Gradient_Swatch_2-13" x1="400" x2="400" xlink:href="#New_Gradient_Swatch_2" y1="28.972" y2="469.905"/><linearGradient id="New_Gradient_Swatch_2-16" x1="324" x2="324" xlink:href="#New_Gradient_Swatch_2" y1="28.972" y2="469.905"/><linearGradient id="New_Gradient_Swatch_2-17" x1="128" x2="128" xlink:href="#New_Gradient_Swatch_2" y1="28.972" y2="469.905"/><path d="m105.6 324.8a8 8 0 0 0 12.8 0l21.6-28.8h148a32.036 32.036 0 0 0 32-32v-176a32.036 32.036 0 0 0 -32-32h-240a32.036 32.036 0 0 0 -32 32v176a32.036 32.036 0 0 0 32 32h36zm-73.6-60.8v-176a16.019 16.019 0 0 1 16-16h240a16.019 16.019 0 0 1 16 16v176a16.019 16.019 0 0 1 -16 16h-152a8 8 0 0 0 -6.4 3.2l-17.6 23.467-17.6-23.467a8 8 0 0 0 -6.4-3.2h-40a16.019 16.019 0 0 1 -16-16z" fill="url(#New_Gradient_Swatch_2)"/><path d="m344 448a16.019 16.019 0 0 1 -16 16h-152a8 8 0 0 0 -6.4 3.2l-17.6 23.467-17.6-23.467a8 8 0 0 0 -6.4-3.2h-40a16.019 16.019 0 0 1 -16-16v-136h-16v136a32.036 32.036 0 0 0 32 32h36l21.6 28.8a8 8 0 0 0 12.8 0l21.6-28.8h148a32.036 32.036 0 0 0 32-32v-64h-16z" fill="url(#New_Gradient_Swatch_2-2)"/><path d="m464 128h-128v16h128a16.019 16.019 0 0 1 16 16v176a16.019 16.019 0 0 1 -16 16h-152a8 8 0 0 0 -6.4 3.2l-17.6 23.467-17.6-23.467a8 8 0 0 0 -6.4-3.2h-40a16.019 16.019 0 0 1 -16-16v-24h-16v24a32.036 32.036 0 0 0 32 32h36l21.6 28.8a8 8 0 0 0 12.8 0l21.6-28.8h148a32.036 32.036 0 0 0 32-32v-176a32.036 32.036 0 0 0 -32-32z" fill="url(#New_Gradient_Swatch_2-3)"/><path d="m80 104h16v16h-16z" fill="url(#New_Gradient_Swatch_2-4)"/><path d="m112 104h160v16h-160z" fill="url(#New_Gradient_Swatch_2-5)"/><g fill="url(#New_Gradient_Swatch_2)"><path d="m64 136h208v16h-208z"/><path d="m64 168h208v16h-208z"/><path d="m64 200h208v16h-208z"/></g><path d="m64 232h176v16h-176z" fill="url(#New_Gradient_Swatch_2-9)"/><path d="m152 352h24v16h-24z" fill="url(#New_Gradient_Swatch_2-10)"/><path d="m104 384h152v16h-152z" fill="url(#New_Gradient_Swatch_2-11)"/><path d="m104 416h208v16h-208z" fill="url(#New_Gradient_Swatch_2-2)"/><path d="m352 216v16h88a8 8 0 0 0 8-8v-48a8 8 0 0 0 -8-8h-88v16h80v32z" fill="url(#New_Gradient_Swatch_2-13)"/><path d="m352 248h96v16h-96z" fill="url(#New_Gradient_Swatch_2-13)"/><path d="m352 280h96v16h-96z" fill="url(#New_Gradient_Swatch_2-13)"/><path d="m232 312h184v16h-184z" fill="url(#New_Gradient_Swatch_2-16)"/><path d="m120 352h16v16h-16z" fill="url(#New_Gradient_Swatch_2-17)"/></svg>